<?xml version="1.0" encoding="UTF-8" standalone="no"?>
<svg
   xmlns:dc="http://purl.org/dc/elements/1.1/"
   xmlns:cc="http://creativecommons.org/ns#"
   xmlns:rdf="http://www.w3.org/1999/02/22-rdf-syntax-ns#"
   xmlns:svg="http://www.w3.org/2000/svg"
   xmlns="http://www.w3.org/2000/svg"
   xmlns:sodipodi="http://sodipodi.sourceforge.net/DTD/sodipodi-0.dtd"
   xmlns:inkscape="http://www.inkscape.org/namespaces/inkscape"
   id="svg56"
   width="256"
   height="352"
   enable-background="new 0 0 86 86"
   version="1.1"
   viewBox="0 0 256 352"
   xml:space="preserve"
   sodipodi:docname="cover-background.svg"
   inkscape:version="1.0.2 (e86c870879, 2021-01-15)"><defs
   id="defs7" /><sodipodi:namedview
   pagecolor="#ff1eff"
   bordercolor="#666666"
   borderopacity="1"
   objecttolerance="10"
   gridtolerance="10"
   guidetolerance="10"
   inkscape:pageopacity="0"
   inkscape:pageshadow="2"
   inkscape:window-width="1920"
   inkscape:window-height="1005"
   id="namedview5"
   showgrid="false"
   inkscape:zoom="1.1988636"
   inkscape:cx="102.12782"
   inkscape:cy="259.62178"
   inkscape:window-x="0"
   inkscape:window-y="0"
   inkscape:window-maximized="1"
   inkscape:current-layer="svg56"
   inkscape:document-rotation="0" /><metadata
   id="metadata62"><rdf:RDF><cc:Work
       rdf:about=""><dc:format>image/svg+xml</dc:format><dc:type
         rdf:resource="http://purl.org/dc/dcmitype/StillImage" /><dc:title /></cc:Work></rdf:RDF></metadata>


<g
   id="g838"
   transform="matrix(3.0625,0,0,3.0625,-3.6875,58.3125)"
   style="stroke-width:0.326531"><path
     id="path914"
     style="opacity:0.8;fill:#ffffff;fill-opacity:1;stroke-width:0.326534;stroke-linecap:square;stroke-linejoin:round"
     d="M 43,11 A 32,32 0 0 0 11,43 32,32 0 0 0 43,75 32,32 0 0 0 75,43 32,32 0 0 0 43,11 Z m -0.101554,2 a 4,4 0 0 1 0.0041,0 4,4 0 0 1 0.09767,0 4,4 0 0 1 4,4 4,4 0 0 1 -4,4 4,4 0 0 1 -4,-4 4,4 0 0 1 3.898437,-4 z M 43,15 a 2,2 0 0 0 -2,2 2,2 0 0 0 2,2 2,2 0 0 0 2,-2 2,2 0 0 0 -2,-2 z m -18.433593,5.617188 a 4,4 0 0 1 2.878905,1.167968 4,4 0 0 1 0,5.660156 4,4 0 0 1 -5.660156,0 4,4 0 0 1 0,-5.660156 4,4 0 0 1 2.781251,-1.167968 z m 36.769531,0 a 4,4 0 0 1 0.09767,0 4,4 0 0 1 2.78125,1.167968 4,4 0 0 1 0,5.660156 4,4 0 0 1 -5.660155,0 4,4 0 0 1 0,-5.660156 4,4 0 0 1 2.78125,-1.167968 z m -36.722656,1.996094 a 2,2 0 0 0 -2,2 2,2 0 0 0 2,2 2,2 0 0 0 2,-2 2,2 0 0 0 -2,-2 z m 36.773436,0 a 2,2 0 0 0 -2,2 2,2 0 0 0 2,2 2,2 0 0 0 2,-2 2,2 0 0 0 -2,-2 z M 42.960937,23 a 20,20 0 0 1 0.03906,0 20,20 0 0 1 20.000001,20 20,20 0 0 1 -20,20 20,20 0 0 1 -20,-20 20,20 0 0 1 19.960937,-20 z M 16.898439,39 a 4,4 0 0 1 0.0041,0 4,4 0 0 1 0.09767,0 4,4 0 0 1 4.000001,4 4,4 0 0 1 -4.000001,4 4,4 0 0 1 -4,-4 4,4 0 0 1 3.898437,-4 z m 52,0 a 4,4 0 0 1 0.0041,0 4,4 0 0 1 0.09767,0 4,4 0 0 1 4,4 4,4 0 0 1 -4,4 4,4 0 0 1 -4,-4 4,4 0 0 1 3.898438,-4 z M 17,41 a 2,2 0 0 0 -2,2 2,2 0 0 0 2,2 2,2 0 0 0 2,-2 2,2 0 0 0 -2,-2 z m 52,0 a 2,2 0 0 0 -2,2 2,2 0 0 0 2,2 2,2 0 0 0 2,-2 2,2 0 0 0 -2,-2 z M 24.566407,57.386718 a 4,4 0 0 1 0.09767,0 4,4 0 0 1 2.78125,1.16797 4,4 0 0 1 0,5.660155 4,4 0 0 1 -5.660157,0 4,4 0 0 1 0,-5.660155 4,4 0 0 1 2.78125,-1.16797 z m 36.769531,0 a 4,4 0 0 1 2.878905,1.16797 4,4 0 0 1 0,5.660155 4,4 0 0 1 -5.660155,0 4,4 0 0 1 0,-5.660155 4,4 0 0 1 2.78125,-1.16797 z m -36.835938,2 a 2,2 0 0 0 -1.886718,2 2,2 0 0 0 2,2 2,2 0 0 0 2,-2 2,2 0 0 0 -2,-2 2,2 0 0 0 -0.113282,0 z m 36.769531,0 a 2,2 0 0 0 -1.882813,2 2,2 0 0 0 2,2 2,2 0 0 0 2,-2 2,2 0 0 0 -2,-2 2,2 0 0 0 -0.117189,0 z M 42.898439,65 a 4,4 0 0 1 0.0041,0 4,4 0 0 1 0.09767,0 4,4 0 0 1 3.390624,1.874999 4,4 0 0 1 0.22656,0.41797 4,4 0 0 1 0.246092,0.667968 4,4 0 0 1 0.05467,0.230469 4,4 0 0 1 0.08194,0.707033 4,4 0 0 1 0,0.101554 4,4 0 0 1 -0.17577,1.171877 4,4 0 0 1 -0.269529,0.660155 4,4 0 0 1 -0.242189,0.410156 4,4 0 0 1 -0.289062,0.375001 4,4 0 0 1 -0.511722,0.496094 4,4 0 0 1 -0.191405,0.144548 4,4 0 0 1 -0.402345,0.25 4,4 0 0 1 -0.878905,0.35547 4,4 0 0 1 -0.468749,0.09374 4,4 0 0 1 -0.234375,0.02734 4,4 0 0 1 -0.238409,0.01554 4,4 0 0 1 -0.09765,0 4,4 0 0 1 -1.171876,-0.17577 4,4 0 0 1 -0.660156,-0.26953 4,4 0 0 1 -0.20704,-0.11328 4,4 0 0 1 -0.199223,-0.128891 4,4 0 0 1 -0.0041,0 4,4 0 0 1 -1.015625,-0.988282 4,4 0 0 1 -0.20704,-0.328126 4,4 0 0 1 -0.04297,-0.07813 4,4 0 0 1 -0.203131,-0.42578 4,4 0 0 1 0,-0.0041 4,4 0 0 1 -0.288976,-1.386641 4,4 0 0 1 0,-0.0041 4,4 0 0 1 0,-0.09767 4,4 0 0 1 0.339844,-1.617188 4,4 0 0 1 0.218743,-0.421875 4,4 0 0 1 0.265623,-0.39453 4,4 0 0 1 0.312501,-0.359374 4,4 0 0 1 0.167954,-0.164068 4,4 0 0 1 0.183611,-0.156252 4,4 0 0 1 0.386718,-0.277344 4,4 0 0 1 0.417968,-0.22656 4,4 0 0 1 0.898437,-0.300781 4,4 0 0 1 0.707193,-0.08192 z m 0.101554,2 a 2,2 0 0 0 -2,2 2,2 0 0 0 2,2 2,2 0 0 0 2,-2 2,2 0 0 0 -2,-2 z" /><path
     id="path8-3"
     d="m 43,25.000004 c -9.941143,0 -18,8.058854 -18,17.999995 0,9.941141 8.058857,17.999997 18,17.999997 9.941141,0 18,-8.058856 18,-17.999997 0,-9.94114 -8.058859,-17.999995 -18,-17.999995 z m -1.803009,3.44029 c 0.209852,-0.02186 0.476325,0.0126 0.688055,0 0.0252,0.100388 -0.152381,0.456657 -0.391741,0.979351 -1.524066,3.32947 -1.610348,7.232272 -0.195869,9.316404 0.25596,0.377867 0.487165,0.736732 0.487165,0.783481 0,0.04672 -0.27549,0.09543 -0.58761,0.09543 -0.732707,0 -1.425932,-0.445127 -2.842633,-1.566964 -0.629353,-0.498356 -1.445856,-0.915995 -1.762836,-0.979354 -0.497762,-0.09944 -0.631732,-0.05639 -1.275671,0.587612 -0.599124,0.599017 -0.783484,0.923156 -0.783484,1.471541 0,2.079555 2.467378,3.72815 7.056366,4.700893 6.232016,1.320839 7.768389,2.508693 7.940289,5.785713 0.21582,4.109291 -1.973183,7.208939 -6.765069,9.607699 -0.571939,0.286402 -0.935252,0.394618 -1.17522,0.487164 -0.10633,-0.0095 -0.185271,0.0095 -0.291297,0 -0.04078,-0.127055 -0.10044,-0.420866 -0.10044,-0.979352 0,-2.182568 -0.858262,-4.428953 -2.154571,-5.685268 -0.347974,-0.337276 -1.325256,-1.05048 -2.159601,-1.566964 -0.834311,-0.516454 -1.675698,-1.115131 -1.863281,-1.371091 -0.31086,-0.424764 -0.33426,-0.686852 -0.09543,-1.471542 0.435274,-1.433139 0.951525,-2.23343 1.958709,-3.13895 0.528025,-0.474732 1.058248,-0.869392 1.17522,-0.878907 0.117,-0.0095 -0.67064,-0.249248 -1.858258,-0.492187 -1.18755,-0.243411 -2.928829,-0.754726 -3.827009,-1.079799 -1.642399,-0.59428 -3.855507,-1.83927 -4.700895,-2.742187 -0.03577,-0.03826 -0.06938,-0.06655 -0.10044,-0.10044 1.211238,-4.824812 4.609406,-8.776829 9.115514,-10.682475 0.942846,-0.39879 1.917073,-0.674074 2.943079,-0.883928 0.511059,-0.104451 1.039286,-0.142226 1.566967,-0.195866 z m 14.705358,7.352676 c 0.368421,0.227726 1.757481,3.237863 2.154572,4.705914 0.512691,1.895264 0.475588,5.173611 0,7.056359 -0.181001,0.716585 -0.409989,1.388098 -0.487159,1.471541 -0.07714,0.08344 -0.35888,-0.395989 -0.688061,-0.979351 -0.32922,-0.583269 -1.381129,-1.82513 -2.255029,-2.747211 -2.52248,-2.661724 -2.919903,-4.048146 -1.863281,-6.172431 0.532868,-1.071205 2.85381,-3.510809 3.138958,-3.334821 z"
     style="opacity:0.4;fill:#ffffff;stroke-width:1.58601" /></g></svg>
